<?xml version="1.0" encoding="UTF-8"?>
<svg width="108px" height="32px" viewBox="0 0 108 32" version="1.1" xmlns="http://www.w3.org/2000/svg" xmlns:xlink="http://www.w3.org/1999/xlink">
    <!-- Generator: Sketch 56 (81588) - https://sketch.com -->
    <title>Logo-Creative-Navy-Design-Agency</title>
    <desc>Created with Sketch.</desc>
    <defs>
        <linearGradient x1="0%" y1="50%" x2="101.99698%" y2="50%" id="linearGradient-1">
            <stop stop-color="#F9D6C2" offset="0%"></stop>
            <stop stop-color="#C4987A" offset="100%"></stop>
        </linearGradient>
        <linearGradient x1="23.6753649%" y1="76.3242155%" x2="73.3297539%" y2="26.6703862%" id="linearGradient-2">
            <stop stop-color="#F9D6C1" offset="0%"></stop>
            <stop stop-color="#C39779" offset="100%"></stop>
        </linearGradient>
    </defs>
    <g id="Page-1" stroke="none" stroke-width="1" fill="none" fill-rule="evenodd">
        <g id="Desktop---Home" transform="translate(-120.000000, -64.000000)">
            <g id="Group-3" transform="translate(120.000000, 64.000000)">
                <g id="Logo-Creative-Navy-Design-Agency">
                    <path d="M87.8522247,14.0422472 L87.8522247,4.00035955 L88.6247191,4.00035955 L88.6247191,14.0422472 L87.8522247,14.0422472 Z M42.1118202,5.0101573 C42.9982921,4.18426966 43.9478652,3.82040449 44.9288989,3.82040449 C45.5151461,3.82040449 46.1127191,3.95038202 46.714427,4.18948315 C48.2754157,4.80970787 48.645573,6.79658427 48.645573,6.79658427 L47.8248989,6.79658427 C47.8248989,6.79658427 47.6156404,4.99020225 45.5518202,4.60386517 C43.3177528,4.18588764 41.6773034,6.24934831 41.5004045,8.30921348 C41.4809888,8.53573034 41.4712809,8.75541573 41.4691236,8.96952809 C41.4691236,8.9891236 41.468764,9.00853933 41.468764,9.02813483 C41.468764,9.04791011 41.4691236,9.06732584 41.4691236,9.08692135 C41.4712809,9.30103371 41.4809888,9.52053933 41.5004045,9.74705618 C41.6773034,11.8069213 43.3177528,13.8705618 45.5518202,13.4524045 C47.6156404,13.0662472 47.8248989,11.2598652 47.8248989,11.2598652 L48.645573,11.2598652 C48.645573,11.2598652 48.2754157,13.2467416 46.714427,13.8667865 C45.1057978,14.5060674 43.5280899,14.3656629 42.1118202,13.0461124 C41.2332584,12.2274157 40.6364045,10.7324045 40.6536629,9.02813483 C40.6364045,7.32404494 41.2332584,5.82903371 42.1118202,5.0101573 Z M77.3346517,4.00035955 L85.8216629,4.00035955 L85.8216629,4.77285393 L81.9642247,4.77285393 L81.9642247,14.0422472 L81.1919101,14.0422472 L81.1919101,4.77285393 L77.3346517,4.77285393 L77.3346517,4.00035955 Z M60.3406742,4.00035955 L66.848,4.00035955 L66.848,4.77285393 L61.1131685,4.77285393 L61.1131685,8.63514607 L66.2187865,8.63514607 L66.2187865,9.40746067 L61.1131685,9.40746067 L61.1131685,13.2697528 L66.848,13.2697528 L66.848,14.0422472 L60.3406742,14.0422472 L60.3406742,4.00035955 Z M101.352989,4.00035955 L107.860315,4.00035955 L107.860315,4.77285393 L102.125483,4.77285393 L102.125483,8.63514607 L107.231101,8.63514607 L107.231101,9.40746067 L102.125483,9.40746067 L102.125483,13.2697528 L107.860315,13.2697528 L107.860315,14.0422472 L101.352989,14.0422472 L101.352989,4.00035955 Z M54.8792809,4.00952809 C54.8792809,4.00952809 54.9001348,4.00844944 54.9382472,4.00844944 C55.2515955,4.00844944 56.7383371,4.07892135 57.4915955,5.37725843 C58.3363596,6.83361798 57.6363146,9.40044944 55.488,9.62570787 C55.488,9.62570787 55.3673708,9.69024719 55.488,9.8531236 C55.608809,10.016 58.2881798,14.0593258 58.2881798,14.0593258 L57.3226067,14.0593258 L54.5040899,9.80278652 L51.5651236,9.80278652 L51.5651236,14.051236 L50.7926292,14.051236 L50.7926292,4.00952809 L54.8792809,4.00952809 Z M51.5651236,4.78182247 L51.5651236,9.03047191 L54.8792809,9.03047191 C54.8792809,9.03047191 56.7126292,9.02705618 56.9603596,7.19568539 C57.2098876,5.35316854 55.4277753,4.77788764 54.8792809,4.78182247 L51.5651236,4.78182247 Z M72.2067416,4.00035955 L73.187236,4.00035955 L77.2631011,14.0422472 L76.4294831,14.0422472 L75.2275056,11.0811685 L70.1662921,11.0811685 L68.9644944,14.0422472 L68.1306966,14.0422472 L72.2067416,4.00035955 Z M72.6969888,4.8465618 L70.4798202,10.3086742 L74.9141573,10.3086742 L72.6969888,4.8465618 Z M98.7502022,4.00035955 L99.5838202,4.00035955 L95.5077753,14.0422472 L94.5274607,14.0422472 L90.4514157,4.00035955 L91.2852135,4.00035955 L95.0177079,13.1960449 L98.7502022,4.00035955 Z M47.1683596,18.6716404 L48.8151011,18.6716404 L48.8151011,28.072809 L47.1683596,28.072809 L47.1683596,28.0433258 L42.3910112,20.8740674 C42.3636854,20.8330787 42.2996854,20.8524944 42.2996854,20.901573 L42.2996854,28.072809 L40.6531236,28.072809 L40.6531236,18.6716404 L42.2996854,18.6716404 L42.2996854,18.6772135 L42.6881798,18.6786517 L47.0707416,25.2553708 C47.1000449,25.2990562 47.1683596,25.278382 47.1683596,25.2257079 L47.1683596,18.6716404 Z M53.7808539,18.6702022 L55.768809,18.6702022 L59.472,28.072809 L57.8493483,28.072809 L56.9359101,25.7535281 L52.6139326,25.7535281 L51.7003146,28.072809 L50.0776629,28.072809 L53.7808539,18.6702022 Z M53.1913708,24.2871011 C53.1649438,24.3539775 53.214382,24.4262472 53.2861124,24.4262472 L56.2635506,24.4262472 C56.3354607,24.4262472 56.3845393,24.3539775 56.3581124,24.2871011 L54.7748315,20.2666067 L53.1913708,24.2871011 Z M59.0716404,18.6702022 L60.8997753,18.6702022 L63.7046292,26.0523146 C63.7402247,26.1457978 63.8725393,26.1457978 63.9079551,26.0523146 L66.7070562,18.6716404 L68.4244494,18.6716404 L64.7626067,28.072809 L62.7750112,28.072809 L59.0716404,18.6702022 Z M75.9063371,18.6712809 L77.7594607,18.6712809 L74.0875506,24.1928989 L74.0875506,28.072809 L72.4409888,28.072809 L72.4409888,24.2200449 L68.7692584,18.6712809 L70.6777528,18.6712809 L73.2951011,22.7217978 L75.9063371,18.6712809 Z" id="Combined-Shape" fill="url(#linearGradient-1)"></path>
                    <path d="M15.9467865,0 C7.15361798,0.000359550562 0,7.1534382 0,15.9467865 L0,15.9467865 C0,24.7399551 7.15361798,31.8932135 15.9467865,31.8932135 L15.9467865,31.8932135 C24.7394157,31.8932135 31.893573,24.7395955 31.893573,15.9467865 L31.893573,15.9467865 C31.893573,7.1534382 24.7394157,0 15.9467865,0 Z M5.96997753,4.83955056 C5.97051685,4.83919101 5.9708764,4.83829213 5.97141573,4.83811236 L5.97141573,4.83811236 C8.43451685,2.62274157 11.6373933,1.2131236 15.166382,1.02939326 L15.166382,1.02939326 L15.166382,1.05024719 C15.424,1.0371236 15.6850337,1.02939326 15.9467865,1.03011236 L15.9467865,1.03011236 C16.2166292,1.02939326 16.4850337,1.0378427 16.7511011,1.05204494 L16.7511011,1.05204494 L16.7511011,1.03011236 C20.2779326,1.21420225 23.4802697,2.62310112 25.9424719,4.83811236 L25.9424719,4.83811236 C26.3368989,5.19262921 26.7115506,5.56764045 27.0657079,5.96116854 L27.0657079,5.96116854 C29.2817978,8.42373034 30.6892584,11.6266067 30.8740674,15.1534382 L30.8740674,15.1534382 L30.842427,15.1534382 C30.8560899,15.4164494 30.8636404,15.6810787 30.8636404,15.9467865 L30.8636404,15.9467865 C30.8636404,16.213573 30.8560899,16.4780225 30.842427,16.7408539 L30.842427,16.7408539 L30.8740674,16.7408539 C30.6892584,20.2676854 29.2810787,23.4700225 27.0657079,25.9318652 L27.0657079,25.9318652 C27.0657079,25.9318652 27.0649888,25.9325843 27.064809,25.9333034 L27.064809,25.9333034 L25.9325843,24.8012584 C27.9778876,22.4983371 29.0854831,19.6517753 29.2591461,16.7581124 L29.2591461,16.7581124 C29.2909663,16.2364045 29.2915056,15.7139775 29.2620225,15.1926292 L29.2620225,15.1926292 L28.977618,15.1949663 L25.591191,15.2206742 C25.9113708,19.2355955 23.6968989,23.0241798 20.0409888,24.7131685 L20.0409888,24.7131685 C16.385618,26.4025169 12.0643596,25.6354157 9.21474157,22.7906517 L9.21474157,22.7906517 C6.3651236,19.9449888 5.58975281,15.6253483 7.27244944,11.9665618 L7.27244944,11.9665618 C8.95586517,8.30741573 12.7408539,6.08683146 16.7559551,6.4 L16.7559551,6.4 L16.7559551,2.93375281 L16.7559551,2.64898876 C16.2211236,2.61698876 15.6843146,2.61680899 15.1502022,2.64898876 L15.1502022,2.64898876 C12.2561798,2.82211236 9.4101573,3.93006742 7.10669663,5.97537079 L7.10669663,5.97537079 L5.96997753,4.83955056 Z M1.01842697,15.9467865 C1.01842697,12.1137978 2.4632809,8.61932584 4.83739326,5.97411236 L4.83739326,5.97411236 L5.97285393,7.10867416 C3.92916854,9.41231461 2.82121348,12.2579775 2.64844944,15.1511011 L2.64844944,15.1511011 C2.61537079,15.6857528 2.61680899,16.222382 2.64934831,16.7573933 L2.64934831,16.7573933 C2.82121348,19.6508764 3.92970787,22.4970787 5.97357303,24.8007191 L5.97357303,24.8007191 L4.84548315,25.9280899 C2.46723596,23.2828764 1.01914607,19.7840899 1.01842697,15.9467865 L1.01842697,15.9467865 Z M16.7573933,29.2595056 C19.6494382,29.0867416 22.4954607,27.9786067 24.7989213,25.9351011 L25.9298876,27.0667865 C23.4682247,29.2749663 20.2723596,30.6793708 16.7511011,30.8634607 L16.7518202,30.8417079 C16.4850337,30.8557303 16.2166292,30.8641798 15.9467865,30.8641798 C15.6850337,30.8641798 15.424,30.8569888 15.1651236,30.8438652 L15.1651236,30.8641798 C11.642427,30.6800899 8.44224719,29.2746067 5.98076404,27.0628315 L7.10867416,25.9351011 C9.41303371,27.9793258 12.257618,29.0867416 15.1502022,29.2595056 C15.4186067,29.2755056 15.6873708,29.2834157 15.9559551,29.2834157 C16.2231011,29.2834157 16.490427,29.2755056 16.7573933,29.2595056 Z M12.024809,11.2134831 C13.1622472,10.2685843 14.5592809,9.79613483 15.9564944,9.79613483 C17.5318652,9.79631461 19.1075955,10.3973034 20.3097528,11.5994607 C22.5779775,13.8673258 22.705618,17.4639101 20.6957303,19.8836854 L17.8644494,17.0522247 L17.8635506,17.0538427 C17.6471011,16.8386517 17.299236,16.8284045 17.0721798,17.0355056 C16.8377528,17.2510562 16.8230112,17.6138427 17.0362247,17.8479101 C17.0425169,17.8538427 17.048809,17.8572584 17.0538427,17.8633708 L17.0529438,17.8646292 L19.8835056,20.6957303 C17.4644494,22.705618 13.8676854,22.5777978 11.5985618,20.3092135 C9.33177528,18.0404494 9.20269663,14.444764 11.2134831,12.0240899 L14.0510562,14.8609438 L14.0517753,14.8605843 C14.2676854,15.0797303 14.6191461,15.0928539 14.8474607,14.8825169 C15.0811685,14.6680449 15.0973483,14.3043596 14.8821573,14.0708315 C14.8765843,14.0638202 14.8681348,14.058427 14.8618427,14.0521348 L14.862382,14.0499775 L12.024809,11.2134831 Z M21.9155056,9.99262921 C22.6054831,8.95766292 22.6054831,7.60791011 21.9146067,6.57258427 C22.9504719,7.26292135 24.3000449,7.26292135 25.3350112,6.57294382 C24.6450337,7.60791011 24.6450337,8.95730337 25.3350112,9.99226966 C24.3000449,9.30211236 22.9504719,9.30211236 21.9155056,9.99262921 Z" id="Combined-Shape" fill="url(#linearGradient-2)"></path>
                </g>
            </g>
        </g>
    </g>
</svg>